<?xml version="1.0" standalone="no"?>
<!DOCTYPE svg PUBLIC "-//W3C//DTD SVG 20010904//EN"
 "http://www.w3.org/TR/2001/REC-SVG-20010904/DTD/svg10.dtd">
<svg version="1.0" xmlns="http://www.w3.org/2000/svg"
 width="60.000000pt" height="23.000000pt" viewBox="0 0 427.000000 166.000000"
 preserveAspectRatio="xMidYMid meet">

<g transform="translate(0.000000,166.000000) scale(0.100000,-0.100000)"
fill="#ffffff" stroke="none">
<path d="M722 1339 c-18 -12 -113 -67 -210 -123 l-177 -102 -3 -260 -2 -261
220 -127 220 -128 143 83 c78 45 177 103 220 127 l77 44 0 99 c0 54 -2 99 -6
99 -3 0 -102 -56 -219 -124 l-215 -125 -134 77 -135 77 -1 156 0 157 135 77
135 76 91 -51 90 -52 -133 -77 -133 -77 -3 -51 -3 -51 46 -25 45 -26 220 127
220 127 -2 54 -3 54 -210 123 c-116 67 -217 123 -225 123 -8 0 -30 -9 -48 -20z"/>
<path d="M1620 855 l0 -425 180 0 180 0 0 50 0 50 -105 0 -105 0 0 375 0 375
-75 0 -75 0 0 -425z"/>
<path d="M2171 1041 c-48 -13 -83 -41 -106 -87 -18 -35 -20 -59 -20 -219 0
-203 8 -233 73 -283 32 -24 44 -27 117 -27 74 0 85 3 119 29 46 35 66 79 66
146 l0 50 -65 0 -65 0 0 -43 c0 -76 -46 -111 -90 -67 -17 17 -20 33 -20 105
l0 85 121 0 121 0 -4 103 c-5 115 -26 165 -80 193 -37 19 -121 26 -167 15z
m107 -119 c6 -9 12 -40 12 -69 l0 -53 -55 0 -55 0 0 45 c0 73 26 110 70 97 8
-3 21 -12 28 -20z"/>
<path d="M2627 1035 c-55 -19 -85 -51 -102 -109 -26 -85 -25 -86 55 -86 l70 0
0 38 c0 45 14 62 52 62 34 0 48 -24 48 -84 l0 -45 -77 -36 c-124 -57 -166
-109 -167 -206 -1 -64 18 -99 67 -129 60 -37 125 -21 160 37 l22 37 8 -42 8
-42 62 0 62 0 -2 87 c-2 49 -4 160 -6 248 -2 144 -5 164 -25 203 -39 73 -140
102 -235 67z m123 -388 c0 -68 -3 -87 -17 -99 -29 -24 -49 -28 -72 -12 -16 12
-21 25 -21 62 0 26 6 54 13 62 19 23 77 70 88 70 5 0 9 -38 9 -83z"/>
<path d="M3220 1043 c-40 -13 -65 -31 -86 -63 l-24 -35 0 48 0 47 -75 0 -75 0
0 -305 0 -305 75 0 75 0 0 214 0 214 32 27 c27 23 39 26 75 22 l43 -5 0 74 c0
75 -3 80 -40 67z"/>
<path d="M3555 1030 c-22 -11 -50 -27 -62 -36 -23 -16 -23 -16 -23 15 l0 31
-70 0 -70 0 0 -305 0 -305 70 0 70 0 0 244 0 244 29 12 c16 6 40 10 53 8 l23
-3 3 -252 2 -253 70 0 70 0 0 271 c0 235 -2 275 -17 299 -30 52 -82 62 -148
30z"/>
<path d="M1290 775 l0 -45 125 0 125 0 0 45 0 45 -125 0 -125 0 0 -45z"/>
</g>
</svg>
