<?xml version="1.0" encoding="UTF-8" standalone="no"?>
<svg
   version="1.0"
   width="88pt"
   height="102.1pt"
   viewBox="0 0 88 102.1"
   preserveAspectRatio="xMidYMid"
   id="svg7"
   xmlns="http://www.w3.org/2000/svg"
   xmlns:svg="http://www.w3.org/2000/svg">
  <defs
     id="defs7" />
  <path
     d="m 39.199999,2.000001 c -1.8,1.2 -11.3,6.7 -21,12.3 l -17.70000031,10.2 -0.3,26 L -1.3117543e-6,76.600004 21.999999,89.300004 l 22,12.799996 14.3,-8.299996 c 7.8,-4.5 17.7,-10.3 22,-12.7 l 7.7,-4.4 v -9.900003 c 0,-5.4 -0.2,-9.9 -0.6,-9.9 -0.3,0 -10.2,5.6 -21.9,12.400003 l -21.5,12.5 -13.4,-7.7 -13.5,-7.700003 -0.1,-15.6 v -15.7 l 13.5,-7.7 13.5,-7.6 9.1,5.1 9,5.2 -13.3,7.7 -13.3,7.7 -0.3,5.1 -0.3,5.1 4.6,2.5 4.5,2.6 22,-12.7 22,-12.7 -0.2,-5.4 -0.3,-5.4 -21,-12.3 c -11.6,-6.7 -21.7,-12.30000000117473 -22.5,-12.30000000117473 -0.8,0 -3,0.90000000117473 -4.8,2.00000000117473 z"
     id="path1"
     style="fill:#fcfcfc;fill-opacity:1;stroke:none;stroke-width:0.1" />
</svg>
